<svg version="1.1" id="Capa_1" xmlns="http://www.w3.org/2000/svg" xmlns:xlink="http://www.w3.org/1999/xlink" x="0" y="0" viewBox="0 0 610.17 128.66" style="enable-background:new 0 0 610.17 128.66" xml:space="preserve"><style>.st1{fill:#39a900}</style><defs><path id="SVGID_1_" d="M32.79 96.74a1.331 1.331 0 0 1-.98-1.62 1.343 1.343 0 0 1 1.62-.98 1.346 1.346 0 0 1 .37 2.46c-.21.13-.45.19-.69.19-.11-.01-.22-.02-.32-.05m62.55-.15c-.31-.18-.52-.48-.61-.82a1.346 1.346 0 0 1 2-1.48c.31.18.52.48.61.83.18.72-.26 1.45-.98 1.62-.11.03-.22.04-.33.04-.24 0-.48-.06-.69-.19m-33.49-4.76c0-1.49 1.21-2.71 2.71-2.71 1.49 0 2.71 1.21 2.71 2.71 0 1.49-1.21 2.71-2.71 2.71-1.49 0-2.71-1.21-2.71-2.71M39.23 56.92a1.34 1.34 0 1 1 2.68 0 1.34 1.34 0 0 1-2.68 0m47.98 0a1.34 1.34 0 1 1 2.68 0 1.34 1.34 0 0 1-2.68 0m-52.95 9.14a24.326 24.326 0 0 1-.5-21.92 24.319 24.319 0 0 1 17.91 12.64 24.322 24.322 0 0 1 1.39 19.77L44.29 60.1a4.87 4.87 0 0 0 1.19-3.19c0-2.71-2.2-4.91-4.91-4.91s-4.91 2.2-4.91 4.91c0 2.7 2.2 4.91 4.91 4.91.19 0 .38-.02.57-.04l8.78 16.45a24.238 24.238 0 0 1-15.66-12.17m43.19-9.28a24.344 24.344 0 0 1 17.91-12.64 24.326 24.326 0 0 1-.49 21.92 24.283 24.283 0 0 1-15.66 12.18l8.78-16.46c.19.02.38.04.57.04a4.91 4.91 0 0 0 0-9.82c-2.71 0-4.91 2.2-4.91 4.91 0 1.22.45 2.33 1.19 3.19l-8.77 16.45a24.286 24.286 0 0 1 1.38-19.77m17.01-36.42a2.134 2.134 0 1 1 3.93 1.15l-.03.03c-.02.03-.03.06-.05.09-.39.52-1.01.87-1.71.87-1.18 0-2.14-.96-2.14-2.14m-34.75-9.84a2.134 2.134 0 1 1 4.27 0c0 1.18-.96 2.14-2.13 2.14-1.18 0-2.14-.96-2.14-2.14m-3.42-1.25c-28.83 4.08-50.4 28.78-50.4 58.07 0 32.35 26.32 58.67 58.68 58.67 1.01 0 1.99-.03 3.01-.08 31.21-1.57 55.66-27.3 55.66-58.58 0-17.59-7.72-33.97-21.24-45.17.19-.57.3-1.18.3-1.81 0-3.14-2.56-5.7-5.7-5.7s-5.7 2.55-5.7 5.7c0 3.14 2.56 5.7 5.7 5.7 1.21 0 2.34-.39 3.26-1.04 12.61 10.52 19.81 25.85 19.81 42.32 0 27.62-20.3 50.64-47.09 54.52 4.38-3.81 9.29-9.62 10.99-17.45 2.44-3.08 5.28-5.13 8.47-6.11.38.54.88.99 1.46 1.35.77.47 1.64.7 2.52.7.4 0 .8-.05 1.19-.15a4.916 4.916 0 0 0 3.58-5.94 4.912 4.912 0 0 0-2.23-3.02 4.92 4.92 0 0 0-3.71-.56c-2.03.5-3.44 2.21-3.68 4.17-2.52.75-4.85 2.03-6.97 3.81.01-2.28-.25-4.68-.86-7.23-.75-3.14-2.2-6.32-4.3-9.49a27.856 27.856 0 0 0 18.97-14.19c4.4-8.26 4.38-18.11-.06-26.36-.34-.63-1.02-1-1.75-.93-9.31.93-17.5 6.41-21.9 14.66a27.883 27.883 0 0 0 0 26.26c.06.14.14.27.24.39 2.71 3.54 4.5 7.07 5.32 10.49 3.79 15.9-7.64 25.92-13.52 29.91V97.84a6.273 6.273 0 0 0 4.48-6.01c0-3.46-2.81-6.27-6.27-6.27-3.46 0-6.27 2.81-6.27 6.27 0 2.84 1.9 5.24 4.5 6.01v24.33c-5.88-3.98-17.32-14.01-13.54-29.92.82-3.42 2.61-6.95 5.32-10.48.1-.12.18-.26.25-.4a27.883 27.883 0 0 0 0-26.26 27.902 27.902 0 0 0-21.9-14.66c-.71-.06-1.4.3-1.75.93a27.859 27.859 0 0 0-.06 26.36 27.917 27.917 0 0 0 18.98 14.19c-2.1 3.17-3.55 6.35-4.3 9.49-.61 2.54-.86 4.95-.86 7.22-2.12-1.78-4.44-3.05-6.95-3.8a4.924 4.924 0 0 0-3.68-4.17c-2.62-.65-5.29.95-5.95 3.58a4.83 4.83 0 0 0 .56 3.71 4.912 4.912 0 0 0 3.02 2.23 4.852 4.852 0 0 0 3.71-.55 4.96 4.96 0 0 0 1.46-1.35c3.18.98 6.01 3.03 8.45 6.09 1.7 7.83 6.61 13.66 10.99 17.47C29.94 117.95 9.45 95 9.45 67.34c0-27.46 20.18-50.62 47.18-54.52.88 2 2.89 3.4 5.21 3.4 3.14 0 5.7-2.56 5.7-5.7s-2.56-5.7-5.7-5.7c-2.7 0-4.98 1.91-5.55 4.45"/></defs><use xlink:href="#SVGID_1_" style="overflow:visible;fill:#39a900"/><clipPath id="SVGID_00000016057946154516725440000005524590207143009932_"><use xlink:href="#SVGID_1_" style="overflow:visible"/></clipPath><path style="clip-path:url(#SVGID_00000016057946154516725440000005524590207143009932_);fill:#39a900" d="M5.89 4.82h117.35v121.19H5.89z"/><path class="st1" d="M363.27 18.84h12.67v1.37c.02 18.9.03 37.79.05 56.69 0 3.72.42 7.39 1.55 10.95 2.38 7.48 7.34 12.42 14.74 14.99 10.45 3.63 20.28 2.43 29.43-3.79 7.51-5.11 11.17-12.36 11.21-21.37.07-19.26.02-38.53.02-57.79v-1.43c2.1 0 4.14-.09 6.17.04.97.06 1.44.93 1.54 1.89.04.4 0 .81 0 1.21v63.79c.28-.23.47-.35.62-.51 18.35-20.59 36.69-41.19 55.03-61.79.98-1.1 1.95-2.19 2.92-3.29.82-.94 1.84-1.39 3.1-1.37 2.16.04 4.33.01 6.49.01 1.74 0 2.23.49 2.23 2.21.01 24.51.01 49.02.03 73.53 0 4.22.02 8.44.03 12.66 0 .44.01.88-.04 1.32-.19 1.74-.85 2.26-2.61 2.21-1.61-.04-3.22-.01-4.93-.01V37.71c-.16-.13-.33-.26-.49-.39-.12.3-.16.67-.36.89-7.59 8.61-15.2 17.2-22.8 25.81-7.38 8.36-14.75 16.73-22.11 25.1-5.6 6.36-11.18 12.73-16.76 19.1-1.4 1.6-3.04 2.46-5.23 2.12-.82-.13-1.67-.02-2.59-.02V99.38c-.45.4-.72.6-.95.84-7.09 7.33-15.86 10.99-25.91 11.82-7.64.63-15.17.21-22.39-2.68-7.08-2.83-12.95-7.13-16.77-13.89-2.74-4.84-3.9-10.12-3.93-15.61-.08-19.44-.08-38.89-.1-58.33-.01-.85.08-1.69.14-2.69zm-147.78-.19c.43 2.69.09 4.73-1.42 6.67-14.02 17.99-27.98 36.03-41.97 54.03-7.8 10.04-15.65 20.05-23.46 30.09-.74.96-1.68 1.44-2.82 1.43-3.01-.01-6.01-.11-9.02-.17-.76-.02-.97-.53-1.05-1.16-.24-1.88.24-3.55 1.4-5.05 13.88-17.91 27.75-35.83 41.62-53.74 7.38-9.53 14.81-19.02 22.13-28.59 1.93-2.52 4.22-3.76 7.42-3.55 2.37.17 4.76.04 7.17.04zm89.89 83.42c1.91-1.99 3.75-3.92 5.67-5.93 1.25 1.19 2.4 2.38 3.64 3.45 1.39 1.19 2.77 2.43 4.31 3.39 5.76 3.57 12.38 2.22 16.3-3.33 2.91-4.11 4.57-8.76 4.69-13.76.28-11.41.32-22.82.41-34.23.01-1.08.26-1.93.94-2.8 3.93-4.97 7.8-9.99 11.83-15.17.06.45.13.7.13.96-.02 15.74.02 31.48-.09 47.22-.04 5.43-1.18 10.7-3.51 15.65-6.18 13.15-20.83 18.47-34.14 12.4-3.96-1.79-7.33-4.38-10.18-7.85zm207.87 8.24c1.05-2.43 1.97-4.65 2.95-6.85 9.97-22.24 19.96-44.47 29.94-66.7 2.44-5.44 4.92-10.86 7.34-16.31.65-1.46 1.59-2.16 3.23-2.04 1.46.1 2.93.06 4.4 0 1.35-.05 2.26.58 2.79 1.74 2.01 4.43 3.99 8.88 5.95 13.34.11.26.07.73-.1.95-2.93 3.8-5.88 7.58-8.84 11.37-.04.05-.13.07-.22.11-1.8-3.88-3.61-7.76-5.52-11.88-.33.68-.59 1.18-.82 1.69-7.55 16.83-15.1 33.67-22.66 50.5-3.25 7.24-6.5 14.49-9.76 21.73-1.03 2.28-1.3 2.41-3.75 2.36-1.52-.04-3.05-.01-4.93-.01zm59.6-70.15c10.47 23.33 20.91 46.57 31.43 70.01-.85.06-1.38.13-1.9.13-3.23-.01-6.46-.1-9.68-.01-1.6.04-2.43-.73-3.03-2.02-1.45-3.12-2.91-6.23-4.36-9.35-7.09-15.26-14.17-30.52-21.28-45.77-.37-.8-.36-1.33.2-2.03 2.74-3.44 5.42-6.92 8.13-10.39.12-.17.27-.32.49-.57zm-354.6 70.15c1.05-2.43 1.97-4.65 2.95-6.85 9.97-22.24 19.96-44.47 29.94-66.7 2.44-5.44 4.92-10.86 7.34-16.31.65-1.46 1.59-2.16 3.23-2.04 1.46.1 2.93.06 4.4 0 1.35-.05 2.26.58 2.79 1.74 2.01 4.43 3.99 8.88 5.95 13.34.11.26.07.73-.1.95-2.93 3.8-5.88 7.58-8.84 11.37-.04.05-.13.07-.22.11-1.8-3.88-3.61-7.76-5.52-11.88-.33.68-.59 1.18-.82 1.69-7.55 16.83-15.1 33.67-22.66 50.5-3.25 7.24-6.5 14.49-9.76 21.73-1.03 2.28-1.3 2.41-3.75 2.36-1.52-.04-3.05-.01-4.93-.01z"/><path class="st1" d="M277.85 40.16c10.47 23.33 20.91 46.57 31.43 70.01-.85.06-1.38.13-1.9.13-3.23-.01-6.46-.1-9.68-.01-1.6.04-2.43-.73-3.03-2.02-1.45-3.12-2.91-6.23-4.36-9.35-7.09-15.26-14.17-30.52-21.28-45.77-.37-.8-.36-1.33.2-2.03 2.74-3.44 5.42-6.92 8.13-10.39.12-.17.27-.32.49-.57zm-123.78 70.55c1.98-2.54 3.78-4.89 5.63-7.19.19-.24.71-.31 1.08-.31 3.63-.02 7.26-.02 10.89-.02 14.67-.01 29.34-.02 44.02-.04 2.24 0 2.85.62 2.81 2.88-.01.77-.05 1.54-.13 2.31-.16 1.55-.95 2.28-2.52 2.34-.99.04-1.98.04-2.97.04h-57.55c-.33-.01-.66-.01-1.26-.01zm42.81-91.6c-1.87 2.4-3.57 4.65-5.36 6.83-.25.31-.89.44-1.35.44-9.79.02-19.58.02-29.38.02-6.89 0-13.79 0-20.68-.01-1.72 0-1.74-.03-1.74-1.7v-5.57c19.48-.01 38.88-.01 58.51-.01zm143.8 20.99V18.89h12.61c0 1.63.02 3.23-.02 4.83-.01.26-.19.55-.36.77-3.91 5.03-7.83 10.06-11.75 15.09-.1.13-.23.25-.48.52z"/></svg>